<svg width="52" height="52" viewBox="0 0 52 52" fill="none" xmlns="http://www.w3.org/2000/svg">
<path d="M1 51.1067H0.893298L0.893298 51L0.893298 46L0.893298 45.8933H1L45.6061 45.8933C45.4171 44.2247 45.1367 42.5838 44.77 40.9757L1.00032 41.1067L0.893298 41.107L0.893298 41L0.893298 36L0.893298 35.8933H1L20.7871 35.8933C20.0214 34.8919 19.1814 33.9503 18.2753 33.0768L18.1843 32.989L18.2861 32.9141L22.361 29.9141L22.4356 29.8591L22.5005 29.9253C24.252 31.712 25.7826 33.716 27.048 35.8933L32.4626 35.8933C31.0951 33.0505 29.3537 30.4215 27.3021 28.0702L27.2443 28.0039L27.2982 27.9346L30.4157 23.9203L30.4933 23.8205L30.5787 23.9137C33.7703 27.3971 36.3548 31.4462 38.1643 35.8933L43.2883 35.8933C41.1609 29.9386 37.8114 24.5647 33.5418 20.0735L33.4788 20.0072L33.5347 19.9348L36.6227 15.9348L36.6976 15.8378L36.7834 15.9253C45.6434 24.9632 51.1067 37.3437 51.1067 51V51.1067H51L1 51.1067Z" fill="#FFFFFB" stroke="#FFFFFB" stroke-width="0.213404"/>
<path d="M0.893298 51L0.893298 51.1067H1C28.6732 51.1067 51.1067 28.6732 51.1067 1V0.893298L51 0.893298L1 0.893298L0.893298 0.893298L0.893298 1L0.893298 6L0.893298 6.1067H1L45.6061 6.1067C45.4171 7.77535 45.1367 9.41625 44.77 11.0243L1.00032 10.8933L0.893298 10.893L0.893298 11L0.893298 16L0.893298 16.1067H1L20.7871 16.1067C16.2381 22.056 9.06718 25.8933 1 25.8933H0.893298L0.893298 26L0.893298 31L0.893298 31.1067H1C12.1219 31.1067 21.835 25.076 27.048 16.1067L32.4626 16.1067C26.8314 27.8134 14.8592 35.8933 1 35.8933H0.893298L0.893298 36L0.893298 41L0.893298 41.1067H1C17.8064 41.1067 32.1981 30.7694 38.1643 16.1067L43.2883 16.1067C37.0853 33.4689 20.4935 45.8933 1 45.8933H0.893298L0.893298 46L0.893298 51Z" fill="#C1292E" stroke="#C1292E" stroke-width="0.213404"/>
</svg>
